<svg width="24" height="20" viewBox="0 0 24 20" fill="none" xmlns="http://www.w3.org/2000/svg">
<g clip-path="url(#clip0_1_70)">
<path d="M21.4789 5.09257C21.4935 5.30257 21.4935 5.51257 21.4935 5.7245C21.4935 12.1822 16.5773 19.63 7.58797 19.63V19.6261C4.93249 19.63 2.33216 18.8693 0.0966797 17.4351C0.482809 17.4816 0.870873 17.5048 1.25991 17.5058C3.46055 17.5077 5.59829 16.7693 7.32958 15.4097C5.23829 15.37 3.40442 14.0064 2.76378 12.0158C3.49636 12.1571 4.2512 12.128 4.97023 11.9316C2.69023 11.471 1.04991 9.46773 1.04991 7.14128V7.07934C1.72926 7.45773 2.48991 7.66773 3.26797 7.69095C1.12055 6.25579 0.458615 3.39902 1.75539 1.16547C4.23668 4.2187 7.89765 6.07482 11.8276 6.27128C11.4338 4.57386 11.9718 2.79515 13.2415 1.60192C15.2099 -0.248401 18.3057 -0.153562 20.156 1.81386C21.2505 1.59805 22.2996 1.19644 23.2596 0.627406C22.8947 1.7587 22.1312 2.71966 21.1112 3.33031C22.0799 3.21612 23.0264 2.95676 23.9176 2.56095C23.2615 3.54418 22.4351 4.40063 21.4789 5.09257Z" fill="#00FFA8"/>
</g>
<defs>
<clipPath id="clip0_1_70">
<rect width="24" height="19.7419" fill="white" transform="translate(0 0.129028)"/>
</clipPath>
</defs>
</svg>
